<svg enable-background="new 0 0 110 110" height="512" viewBox="0 0 110 110" width="512" xmlns="http://www.w3.org/2000/svg"><ellipse cx="55" cy="55" fill="#feda6f" rx="42.72" ry="42.72" transform="matrix(.383 -.924 .924 .383 -16.861 84.766)"/><ellipse cx="55" cy="55" fill="#f2c144" rx="32.618" ry="32.618" transform="matrix(.383 -.924 .924 .383 -16.861 84.766)"/><path d="m68.9203491 57.1248245c-1.1777191-1.5483246-2.8619308-2.6436691-5.0526199-3.2860794 1.6965714-.8400497 2.9648743-1.9436073 3.8048859-3.3107605.8400497-1.3671494 1.2600937-2.8248444 1.2600937-4.3731689 0-1.6636353-.4735489-3.2572556-1.4206543-4.7808609-.9471512-1.5236473-2.2565994-2.6519241-3.9284897-3.384922-1.1076202-.4856071-2.4610138-.8067245-4.0494766-.9706001v-4.5041618h-4.0297356v4.3753128h-2.6782646v-4.3753128h-4.0296898v4.3753128h-5.4604378v36.2208366h5.4604378v4.3753128h4.0296898v-4.3753128h2.6782646v4.3753128h4.0297356v-4.4669495c1.2894058-.0939102 2.452755-.2588348 3.4565086-.5136948 1.5895119-.4035339 2.9113274-1.0006104 3.9655266-1.7912598 1.0541611-.7906494 1.9395065-1.9148254 2.6560364-3.3725204.7164841-1.4577332 1.0747757-3.0348892 1.0747757-4.7314568-.0000001-2.1083564-.5888673-3.9366989-1.7665864-5.4850273zm-20.791172-15.9609146h7.2392502c2.6024818 0 4.4390373.1688576 5.5097046.5065308 1.0706673.3376694 1.8942108.9635696 2.4707108 1.8777428.5764999.9141693.8647728 1.972477.8647728 3.1748772 0 1.2683067-.3088455 2.3225098-.9265327 3.1625175-.617691.8400497-1.535965 1.4412689-2.7548332 1.8036613-.9224243.2800179-2.4460297.4200058-4.5708542.4200058h-7.8322182v-10.9453354zm16.8750877 24.4972992c-.4776993.8811951-1.0871353 1.5524368-1.8283424 2.0136261-.7412529.4611893-1.6636353.7906494-2.7672348.9882889-.6259003.1153107-1.7130356.172966-3.2613602.172966h-9.0181503v-12.4524727h8.3757858c2.3059998 0 4.0725822.2017899 5.2997017.6053276s2.1865845 1.1035995 2.8783951 2.1001053c.6918106.9965477 1.0376892 2.1701164 1.0376892 3.5208015 0 1.1529999-.2388306 2.1701241-.7164841 3.0513573z" fill="#feda6f"/><g fill="#f2c144"><path d="m53.361527 14.61079h3.276949v5.360108h-3.276949z"/><path d="m53.361527 90.029099h3.276949v5.360108h-3.276949z"/><path d="m91.070679 52.319946h3.276949v5.360108h-3.276949z" transform="matrix(0 1 -1 0 147.709 -37.709)"/><path d="m15.652371 52.319946h3.276949v5.360108h-3.276949z" transform="matrix(0 1 -1 0 72.291 37.709)"/><path d="m80.025925 25.655546h3.276949v5.360108h-3.276949z" transform="matrix(.707 .707 -.707 .707 43.955 -49.446)"/><path d="m26.697126 78.984345h3.276949v5.360108h-3.276949z" transform="matrix(.707 .707 -.707 .707 66.045 3.883)"/><path d="m80.025925 78.984345h3.276949v5.360108h-3.276949z" transform="matrix(-.707 .707 -.707 -.707 197.155 81.664)"/><path d="m26.697126 25.655546h3.276949v5.360108h-3.276949z" transform="matrix(-.707 .707 -.707 -.707 68.408 28.336)"/><path d="m38.930855 17.48123h3.276949v5.360108h-3.276949z" transform="matrix(.924 -.383 .383 .924 -4.627 17.06)"/><path d="m67.792198 87.158661h3.276949v5.360108h-3.276949z" transform="matrix(.924 -.383 .383 .924 -29.095 33.409)"/><path d="m88.200241 37.889278h3.276949v5.360108h-3.276949z" transform="matrix(.383 .924 -.924 .383 92.94 -57.956)"/><path d="m18.522808 66.750618h3.276949v5.360108h-3.276949z" transform="matrix(.383 .924 -.924 .383 76.591 24.234)"/><path d="m67.792198 17.48123h3.276949v5.360108h-3.276949z" transform="matrix(.924 .383 -.383 .924 13 -25.035)"/><path d="m38.930855 87.158661h3.276949v5.360108h-3.276949z" transform="matrix(.924 .383 -.383 .924 37.468 -8.687)"/><path d="m88.200241 66.750618h3.276949v5.360108h-3.276949z" transform="matrix(-.383 .924 -.924 -.383 188.364 13)"/><path d="m18.522808 37.889278h3.276949v5.360108h-3.276949z" transform="matrix(-.383 .924 -.924 -.383 65.358 37.468)"/></g></svg>